<?xml version="1.0" encoding="UTF-8" standalone="no"?>
<!DOCTYPE svg PUBLIC "-//W3C//DTD SVG 1.1//EN" "http://www.w3.org/Graphics/SVG/1.1/DTD/svg11.dtd">
<svg width="100%" height="100%" viewBox="0 0 662 680" version="1.1" xmlns="http://www.w3.org/2000/svg" xmlns:xlink="http://www.w3.org/1999/xlink" xml:space="preserve" xmlns:serif="http://www.serif.com/" style="fill-rule:evenodd;clip-rule:evenodd;stroke-linejoin:round;stroke-miterlimit:2;">
    <g transform="matrix(1,0,0,1,-519.685,-2220.47)">
        <rect x="708.661" y="2409.45" width="94.488" height="94.488" style="fill:rgb(0,51,160);"/>
        <g transform="matrix(1,0,0,1.25,0,-602.362)">
            <rect x="803.15" y="2314.96" width="94.488" height="94.488" style="fill:rgb(0,51,160);"/>
        </g>
        <g transform="matrix(1.25,0,0,1,-224.409,0)">
            <rect x="897.638" y="2409.45" width="94.488" height="94.488" style="fill:rgb(0,51,160);"/>
        </g>
        <g transform="matrix(1,0,0,1.25,0,-625.984)">
            <rect x="803.15" y="2503.94" width="94.488" height="94.488" style="fill:rgb(0,51,160);"/>
        </g>
        <path d="M897.638,2598.43L897.638,2692.91L519.685,2692.91L519.685,2220.47L614.173,2220.47L614.173,2598.43L897.638,2598.43Z"/>
        <path d="M803.15,2314.96L803.15,2220.47L1181.1,2220.47L1181.1,2503.94L1086.61,2503.94L1086.61,2598.43L992.126,2598.43L992.126,2409.45L1086.61,2409.45L1086.61,2314.96L803.15,2314.96Z"/>
        <rect x="1086.61" y="2598.43" width="94.488" height="94.488"/>
        <g transform="matrix(1,0,0,1,0,-23.622)">
            <g transform="matrix(125,0,0,125,519.685,2831.28)">
                <path d="M0.406,0.012C0.352,0.012 0.302,0.002 0.256,-0.016C0.21,-0.035 0.17,-0.06 0.136,-0.094C0.102,-0.127 0.075,-0.166 0.056,-0.21C0.037,-0.255 0.028,-0.303 0.028,-0.355C0.028,-0.407 0.037,-0.456 0.057,-0.5C0.077,-0.544 0.105,-0.583 0.14,-0.616C0.175,-0.649 0.216,-0.675 0.263,-0.693C0.31,-0.711 0.361,-0.721 0.414,-0.721C0.478,-0.721 0.535,-0.709 0.586,-0.687C0.637,-0.665 0.679,-0.634 0.711,-0.595L0.591,-0.475C0.567,-0.503 0.541,-0.525 0.512,-0.539C0.483,-0.554 0.45,-0.561 0.412,-0.561C0.374,-0.561 0.339,-0.553 0.308,-0.536C0.278,-0.519 0.254,-0.495 0.236,-0.464C0.218,-0.433 0.209,-0.397 0.209,-0.356C0.209,-0.314 0.218,-0.278 0.235,-0.247C0.251,-0.216 0.275,-0.191 0.304,-0.174C0.334,-0.157 0.368,-0.148 0.407,-0.148C0.446,-0.148 0.479,-0.155 0.506,-0.17C0.533,-0.185 0.553,-0.206 0.567,-0.234C0.582,-0.262 0.589,-0.295 0.589,-0.334L0.71,-0.256L0.387,-0.264L0.387,-0.41L0.769,-0.41L0.769,-0.383C0.769,-0.298 0.754,-0.227 0.723,-0.168C0.693,-0.109 0.65,-0.064 0.595,-0.034C0.541,-0.004 0.477,0.012 0.406,0.012Z" style="fill-rule:nonzero;"/>
            </g>
            <g transform="matrix(125,0,0,125,642.069,2831.28)">
                <path d="M0.011,-0L0.286,-0.709L0.459,-0.709L0.731,-0L0.544,-0L0.339,-0.596L0.404,-0.596L0.194,-0L0.011,-0ZM0.178,-0.124L0.178,-0.266L0.569,-0.266L0.569,-0.124L0.178,-0.124Z" style="fill-rule:nonzero;"/>
            </g>
            <g transform="matrix(125,0,0,125,760.952,2831.28)">
                <path d="M0.063,-0L0.063,-0.709L0.192,-0.709L0.464,-0.298L0.403,-0.298L0.674,-0.709L0.803,-0.709L0.803,-0L0.626,-0L0.626,-0.413L0.654,-0.405L0.491,-0.16L0.375,-0.16L0.213,-0.405L0.241,-0.413L0.241,-0L0.063,-0Z" style="fill-rule:nonzero;"/>
            </g>
            <g transform="matrix(125,0,0,125,896.335,2831.28)">
                <rect x="0.063" y="-0.709" width="0.179" height="0.709" style="fill-rule:nonzero;"/>
            </g>
            <g transform="matrix(125,0,0,125,961.594,2831.28)">
                <path d="M0.063,-0L0.063,-0.709L0.188,-0.709L0.242,-0.564L0.242,-0L0.063,-0ZM0.552,-0L0.138,-0.526L0.188,-0.709L0.603,-0.183L0.552,-0ZM0.552,-0L0.506,-0.149L0.506,-0.709L0.685,-0.709L0.685,-0L0.552,-0Z" style="fill-rule:nonzero;"/>
            </g>
            <g transform="matrix(125,0,0,125,1082.23,2831.28)">
                <path d="M0.406,0.012C0.352,0.012 0.302,0.002 0.256,-0.016C0.21,-0.035 0.17,-0.06 0.136,-0.094C0.102,-0.127 0.075,-0.166 0.056,-0.21C0.037,-0.255 0.028,-0.303 0.028,-0.355C0.028,-0.407 0.037,-0.456 0.057,-0.5C0.077,-0.544 0.105,-0.583 0.14,-0.616C0.175,-0.649 0.216,-0.675 0.263,-0.693C0.31,-0.711 0.361,-0.721 0.414,-0.721C0.478,-0.721 0.535,-0.709 0.586,-0.687C0.637,-0.665 0.679,-0.634 0.711,-0.595L0.591,-0.475C0.567,-0.503 0.541,-0.525 0.512,-0.539C0.483,-0.554 0.45,-0.561 0.412,-0.561C0.374,-0.561 0.339,-0.553 0.308,-0.536C0.278,-0.519 0.254,-0.495 0.236,-0.464C0.218,-0.433 0.209,-0.397 0.209,-0.356C0.209,-0.314 0.218,-0.278 0.235,-0.247C0.251,-0.216 0.275,-0.191 0.304,-0.174C0.334,-0.157 0.368,-0.148 0.407,-0.148C0.446,-0.148 0.479,-0.155 0.506,-0.17C0.533,-0.185 0.553,-0.206 0.567,-0.234C0.582,-0.262 0.589,-0.295 0.589,-0.334L0.71,-0.256L0.387,-0.264L0.387,-0.41L0.769,-0.41L0.769,-0.383C0.769,-0.298 0.754,-0.227 0.723,-0.168C0.693,-0.109 0.65,-0.064 0.595,-0.034C0.541,-0.004 0.477,0.012 0.406,0.012Z" style="fill-rule:nonzero;"/>
            </g>
            <g transform="matrix(125,0,0,125,1181.1,2831.28)">
            </g>
            <g transform="matrix(79.1667,0,0,79.1667,519.685,2922.95)">
                <path d="M0.235,-0L0.235,-0.704L0.414,-0.704L0.414,-0L0.235,-0ZM0.018,-0.555L0.018,-0.709L0.631,-0.709L0.631,-0.555L0.018,-0.555Z" style="fill-rule:nonzero;"/>
            </g>
            <g transform="matrix(79.1667,0,0,79.1667,579.058,2922.95)">
                <path d="M0.408,0.013C0.353,0.013 0.303,0.004 0.257,-0.015C0.211,-0.034 0.171,-0.06 0.136,-0.093C0.102,-0.126 0.075,-0.165 0.056,-0.21C0.037,-0.255 0.027,-0.304 0.027,-0.356C0.027,-0.408 0.037,-0.456 0.056,-0.501C0.074,-0.545 0.101,-0.584 0.135,-0.617C0.169,-0.65 0.209,-0.676 0.255,-0.695C0.301,-0.713 0.351,-0.722 0.406,-0.722C0.46,-0.722 0.51,-0.713 0.557,-0.695C0.603,-0.676 0.643,-0.65 0.677,-0.617C0.711,-0.584 0.737,-0.545 0.756,-0.5C0.775,-0.456 0.785,-0.407 0.785,-0.355C0.785,-0.303 0.775,-0.254 0.756,-0.21C0.737,-0.165 0.711,-0.126 0.677,-0.092C0.643,-0.059 0.603,-0.033 0.557,-0.015C0.511,0.004 0.462,0.013 0.408,0.013ZM0.406,-0.147C0.446,-0.147 0.48,-0.155 0.51,-0.173C0.539,-0.19 0.562,-0.214 0.578,-0.246C0.594,-0.277 0.602,-0.314 0.602,-0.356C0.602,-0.387 0.597,-0.415 0.588,-0.44C0.579,-0.466 0.566,-0.487 0.549,-0.506C0.531,-0.524 0.51,-0.538 0.487,-0.548C0.462,-0.558 0.436,-0.563 0.406,-0.563C0.366,-0.563 0.332,-0.554 0.302,-0.537C0.273,-0.52 0.25,-0.496 0.234,-0.465C0.218,-0.434 0.21,-0.397 0.21,-0.356C0.21,-0.324 0.214,-0.295 0.224,-0.269C0.233,-0.244 0.246,-0.222 0.263,-0.203C0.28,-0.185 0.301,-0.171 0.325,-0.161C0.349,-0.151 0.376,-0.147 0.406,-0.147Z" style="fill-rule:nonzero;"/>
            </g>
            <g transform="matrix(79.1667,0,0,79.1667,653.868,2922.95)">
                <path d="M0.355,0.012C0.295,0.012 0.242,-0.001 0.196,-0.026C0.151,-0.052 0.115,-0.086 0.09,-0.131C0.064,-0.175 0.052,-0.226 0.052,-0.283L0.052,-0.709L0.23,-0.709L0.23,-0.27C0.23,-0.245 0.236,-0.223 0.247,-0.204C0.258,-0.186 0.273,-0.172 0.292,-0.162C0.311,-0.153 0.332,-0.148 0.355,-0.148C0.379,-0.148 0.4,-0.153 0.418,-0.162C0.436,-0.172 0.451,-0.186 0.461,-0.204C0.472,-0.222 0.477,-0.244 0.477,-0.269L0.477,-0.709L0.657,-0.709L0.657,-0.282C0.657,-0.225 0.644,-0.174 0.619,-0.13C0.593,-0.086 0.558,-0.052 0.513,-0.026C0.468,-0.001 0.415,0.012 0.355,0.012Z" style="fill-rule:nonzero;"/>
            </g>
            <g transform="matrix(79.1667,0,0,79.1667,720.445,2922.95)">
                <path d="M0.205,-0.287L0.205,-0.415L0.34,-0.415C0.369,-0.415 0.391,-0.422 0.407,-0.436C0.423,-0.451 0.431,-0.471 0.431,-0.495C0.431,-0.519 0.423,-0.539 0.407,-0.554C0.392,-0.569 0.369,-0.576 0.34,-0.576L0.205,-0.576L0.205,-0.709L0.365,-0.709C0.413,-0.709 0.455,-0.7 0.492,-0.682C0.528,-0.664 0.556,-0.639 0.577,-0.608C0.597,-0.576 0.608,-0.54 0.608,-0.498C0.608,-0.456 0.597,-0.419 0.577,-0.388C0.556,-0.356 0.527,-0.331 0.489,-0.314C0.452,-0.296 0.408,-0.287 0.358,-0.287L0.205,-0.287ZM0.063,-0L0.063,-0.709L0.242,-0.709L0.242,-0L0.063,-0ZM0.447,-0L0.241,-0.304L0.402,-0.343L0.654,-0L0.447,-0Z" style="fill-rule:nonzero;"/>
            </g>
            <g transform="matrix(79.1667,0,0,79.1667,782.351,2922.95)">
                <path d="M0.063,-0L0.063,-0.709L0.188,-0.709L0.242,-0.564L0.242,-0L0.063,-0ZM0.552,-0L0.138,-0.526L0.188,-0.709L0.603,-0.183L0.552,-0ZM0.552,-0L0.506,-0.149L0.506,-0.709L0.685,-0.709L0.685,-0L0.552,-0Z" style="fill-rule:nonzero;"/>
            </g>
            <g transform="matrix(79.1667,0,0,79.1667,852.095,2922.95)">
                <path d="M0.011,-0L0.286,-0.709L0.459,-0.709L0.731,-0L0.544,-0L0.339,-0.596L0.404,-0.596L0.194,-0L0.011,-0ZM0.178,-0.124L0.178,-0.266L0.569,-0.266L0.569,-0.124L0.178,-0.124Z" style="fill-rule:nonzero;"/>
            </g>
            <g transform="matrix(79.1667,0,0,79.1667,920.73,2922.95)">
                <path d="M0.063,-0L0.063,-0.709L0.192,-0.709L0.464,-0.298L0.403,-0.298L0.674,-0.709L0.803,-0.709L0.803,-0L0.626,-0L0.626,-0.413L0.654,-0.405L0.491,-0.16L0.375,-0.16L0.213,-0.405L0.241,-0.413L0.241,-0L0.063,-0Z" style="fill-rule:nonzero;"/>
            </g>
            <g transform="matrix(79.1667,0,0,79.1667,999.815,2922.95)">
                <path d="M0.063,-0L0.063,-0.709L0.242,-0.709L0.242,-0L0.063,-0ZM0.205,-0L0.205,-0.151L0.589,-0.151L0.589,-0L0.205,-0ZM0.205,-0.288L0.205,-0.435L0.553,-0.435L0.553,-0.288L0.205,-0.288ZM0.205,-0.558L0.205,-0.709L0.583,-0.709L0.583,-0.558L0.205,-0.558Z" style="fill-rule:nonzero;"/>
            </g>
            <g transform="matrix(79.1667,0,0,79.1667,1059.98,2922.95)">
                <path d="M0.063,-0L0.063,-0.709L0.188,-0.709L0.242,-0.564L0.242,-0L0.063,-0ZM0.552,-0L0.138,-0.526L0.188,-0.709L0.603,-0.183L0.552,-0ZM0.552,-0L0.506,-0.149L0.506,-0.709L0.685,-0.709L0.685,-0L0.552,-0Z" style="fill-rule:nonzero;"/>
            </g>
            <g transform="matrix(79.1667,0,0,79.1667,1129.72,2922.95)">
                <path d="M0.235,-0L0.235,-0.704L0.414,-0.704L0.414,-0L0.235,-0ZM0.018,-0.555L0.018,-0.709L0.631,-0.709L0.631,-0.555L0.018,-0.555Z" style="fill-rule:nonzero;"/>
            </g>
            <g transform="matrix(79.1667,0,0,79.1667,1181.1,2922.95)">
            </g>
        </g>
    </g>
</svg>
