<?xml version="1.0" encoding="UTF-8" standalone="no"?>
<!DOCTYPE svg PUBLIC "-//W3C//DTD SVG 1.1//EN" "http://www.w3.org/Graphics/SVG/1.1/DTD/svg11.dtd">
<svg width="100%" height="100%" viewBox="0 0 662 473" version="1.1" xmlns="http://www.w3.org/2000/svg" xmlns:xlink="http://www.w3.org/1999/xlink" xml:space="preserve" xmlns:serif="http://www.serif.com/" style="fill-rule:evenodd;clip-rule:evenodd;stroke-linejoin:round;stroke-miterlimit:2;">
    <g transform="matrix(1,0,0,1,-519.685,-2220.47)">
        <rect x="708.661" y="2409.45" width="94.488" height="94.488" style="fill:rgb(0,51,160);"/>
        <g transform="matrix(1,0,0,1.25,0,-602.362)">
            <rect x="803.15" y="2314.96" width="94.488" height="94.488" style="fill:rgb(0,51,160);"/>
        </g>
        <g transform="matrix(1.25,0,0,1,-224.409,0)">
            <rect x="897.638" y="2409.45" width="94.488" height="94.488" style="fill:rgb(0,51,160);"/>
        </g>
        <g transform="matrix(1,0,0,1.25,0,-625.984)">
            <rect x="803.15" y="2503.94" width="94.488" height="94.488" style="fill:rgb(0,51,160);"/>
        </g>
        <path d="M897.638,2598.43L897.638,2692.91L519.685,2692.91L519.685,2220.47L614.173,2220.47L614.173,2598.43L897.638,2598.43Z"/>
        <path d="M803.15,2314.96L803.15,2220.47L1181.1,2220.47L1181.1,2503.94L1086.61,2503.94L1086.61,2598.43L992.126,2598.43L992.126,2409.45L1086.61,2409.45L1086.61,2314.96L803.15,2314.96Z"/>
        <rect x="1086.61" y="2598.43" width="94.488" height="94.488"/>
    </g>
</svg>
