<?xml version="1.0" encoding="UTF-8" standalone="no"?>
<svg
   width="100%"
   height="100%"
   viewBox="0 0 662 680"
   version="1.1"
   xml:space="preserve"
   style="fill-rule:evenodd;clip-rule:evenodd;stroke-linejoin:round;stroke-miterlimit:2;"
   id="svg25"
   sodipodi:docname="urgtlogo_text.svg"
   inkscape:version="1.4.2 (f4327f4, 2025-05-13)"
   xmlns:inkscape="http://www.inkscape.org/namespaces/inkscape"
   xmlns:sodipodi="http://sodipodi.sourceforge.net/DTD/sodipodi-0.dtd"
   xmlns="http://www.w3.org/2000/svg"
   xmlns:svg="http://www.w3.org/2000/svg"><defs
   id="defs25" /><sodipodi:namedview
   id="namedview25"
   pagecolor="#ffffff"
   bordercolor="#000000"
   borderopacity="0.25"
   inkscape:showpageshadow="2"
   inkscape:pageopacity="0.0"
   inkscape:pagecheckerboard="0"
   inkscape:deskcolor="#d1d1d1"
   inkscape:zoom="1.5485294"
   inkscape:cx="330.95916"
   inkscape:cy="340"
   inkscape:window-width="2400"
   inkscape:window-height="1271"
   inkscape:window-x="-9"
   inkscape:window-y="-9"
   inkscape:window-maximized="1"
   inkscape:current-layer="svg25" />
    <g
   transform="matrix(1,0,0,1,-519.685,-2220.47)"
   id="g25">
        <rect
   x="708.661"
   y="2409.45"
   width="94.488"
   height="94.488"
   style="fill:rgb(0,51,160);"
   id="rect1" />
        <g
   transform="matrix(1,0,0,1.25,0,-602.362)"
   id="g2">
            <rect
   x="803.15"
   y="2314.96"
   width="94.488"
   height="94.488"
   style="fill:rgb(0,51,160);"
   id="rect2" />
        </g>
        <g
   transform="matrix(1.25,0,0,1,-224.409,0)"
   id="g3">
            <rect
   x="897.638"
   y="2409.45"
   width="94.488"
   height="94.488"
   style="fill:rgb(0,51,160);"
   id="rect3" />
        </g>
        <g
   transform="matrix(1,0,0,1.25,0,-625.984)"
   id="g4">
            <rect
   x="803.15"
   y="2503.94"
   width="94.488"
   height="94.488"
   style="fill:rgb(0,51,160);"
   id="rect4" />
        </g>
        <path
   d="M897.638,2598.43L897.638,2692.91L519.685,2692.91L519.685,2220.47L614.173,2220.47L614.173,2598.43L897.638,2598.43Z"
   id="path4" />
        <path
   d="M803.15,2314.96L803.15,2220.47L1181.1,2220.47L1181.1,2503.94L1086.61,2503.94L1086.61,2598.43L992.126,2598.43L992.126,2409.45L1086.61,2409.45L1086.61,2314.96L803.15,2314.96Z"
   id="path5" />
        <rect
   x="1086.61"
   y="2598.43"
   width="94.488"
   height="94.488"
   id="rect5" />
        <g
   transform="matrix(1,0,0,1,0,-23.622)"
   id="g24">
            <g
   transform="matrix(125,0,0,125,519.685,2831.28)"
   id="g6">
                <path
   d="M0.406,0.012C0.352,0.012 0.302,0.002 0.256,-0.016C0.21,-0.035 0.17,-0.06 0.136,-0.094C0.102,-0.127 0.075,-0.166 0.056,-0.21C0.037,-0.255 0.028,-0.303 0.028,-0.355C0.028,-0.407 0.037,-0.456 0.057,-0.5C0.077,-0.544 0.105,-0.583 0.14,-0.616C0.175,-0.649 0.216,-0.675 0.263,-0.693C0.31,-0.711 0.361,-0.721 0.414,-0.721C0.478,-0.721 0.535,-0.709 0.586,-0.687C0.637,-0.665 0.679,-0.634 0.711,-0.595L0.591,-0.475C0.567,-0.503 0.541,-0.525 0.512,-0.539C0.483,-0.554 0.45,-0.561 0.412,-0.561C0.374,-0.561 0.339,-0.553 0.308,-0.536C0.278,-0.519 0.254,-0.495 0.236,-0.464C0.218,-0.433 0.209,-0.397 0.209,-0.356C0.209,-0.314 0.218,-0.278 0.235,-0.247C0.251,-0.216 0.275,-0.191 0.304,-0.174C0.334,-0.157 0.368,-0.148 0.407,-0.148C0.446,-0.148 0.479,-0.155 0.506,-0.17C0.533,-0.185 0.553,-0.206 0.567,-0.234C0.582,-0.262 0.589,-0.295 0.589,-0.334L0.71,-0.256L0.387,-0.264L0.387,-0.41L0.769,-0.41L0.769,-0.383C0.769,-0.298 0.754,-0.227 0.723,-0.168C0.693,-0.109 0.65,-0.064 0.595,-0.034C0.541,-0.004 0.477,0.012 0.406,0.012Z"
   style="fill-rule:nonzero;"
   id="path6" />
            </g>
            <g
   transform="matrix(125,0,0,125,642.069,2831.28)"
   id="g7">
                <path
   d="M0.011,-0L0.286,-0.709L0.459,-0.709L0.731,-0L0.544,-0L0.339,-0.596L0.404,-0.596L0.194,-0L0.011,-0ZM0.178,-0.124L0.178,-0.266L0.569,-0.266L0.569,-0.124L0.178,-0.124Z"
   style="fill-rule:nonzero;"
   id="path7" />
            </g>
            <g
   transform="matrix(125,0,0,125,760.952,2831.28)"
   id="g8">
                <path
   d="M0.063,-0L0.063,-0.709L0.192,-0.709L0.464,-0.298L0.403,-0.298L0.674,-0.709L0.803,-0.709L0.803,-0L0.626,-0L0.626,-0.413L0.654,-0.405L0.491,-0.16L0.375,-0.16L0.213,-0.405L0.241,-0.413L0.241,-0L0.063,-0Z"
   style="fill-rule:nonzero;"
   id="path8" />
            </g>
            <g
   transform="matrix(125,0,0,125,896.335,2831.28)"
   id="g9">
                <rect
   x="0.063"
   y="-0.709"
   width="0.179"
   height="0.709"
   style="fill-rule:nonzero;"
   id="rect8" />
            </g>
            <g
   transform="matrix(125,0,0,125,961.594,2831.28)"
   id="g10">
                <path
   d="M0.063,-0L0.063,-0.709L0.188,-0.709L0.242,-0.564L0.242,-0L0.063,-0ZM0.552,-0L0.138,-0.526L0.188,-0.709L0.603,-0.183L0.552,-0ZM0.552,-0L0.506,-0.149L0.506,-0.709L0.685,-0.709L0.685,-0L0.552,-0Z"
   style="fill-rule:nonzero;"
   id="path9" />
            </g>
            <g
   transform="matrix(125,0,0,125,1082.23,2831.28)"
   id="g11">
                <path
   d="M0.406,0.012C0.352,0.012 0.302,0.002 0.256,-0.016C0.21,-0.035 0.17,-0.06 0.136,-0.094C0.102,-0.127 0.075,-0.166 0.056,-0.21C0.037,-0.255 0.028,-0.303 0.028,-0.355C0.028,-0.407 0.037,-0.456 0.057,-0.5C0.077,-0.544 0.105,-0.583 0.14,-0.616C0.175,-0.649 0.216,-0.675 0.263,-0.693C0.31,-0.711 0.361,-0.721 0.414,-0.721C0.478,-0.721 0.535,-0.709 0.586,-0.687C0.637,-0.665 0.679,-0.634 0.711,-0.595L0.591,-0.475C0.567,-0.503 0.541,-0.525 0.512,-0.539C0.483,-0.554 0.45,-0.561 0.412,-0.561C0.374,-0.561 0.339,-0.553 0.308,-0.536C0.278,-0.519 0.254,-0.495 0.236,-0.464C0.218,-0.433 0.209,-0.397 0.209,-0.356C0.209,-0.314 0.218,-0.278 0.235,-0.247C0.251,-0.216 0.275,-0.191 0.304,-0.174C0.334,-0.157 0.368,-0.148 0.407,-0.148C0.446,-0.148 0.479,-0.155 0.506,-0.17C0.533,-0.185 0.553,-0.206 0.567,-0.234C0.582,-0.262 0.589,-0.295 0.589,-0.334L0.71,-0.256L0.387,-0.264L0.387,-0.41L0.769,-0.41L0.769,-0.383C0.769,-0.298 0.754,-0.227 0.723,-0.168C0.693,-0.109 0.65,-0.064 0.595,-0.034C0.541,-0.004 0.477,0.012 0.406,0.012Z"
   style="fill-rule:nonzero;"
   id="path10" />
            </g>
            <g
   transform="matrix(125,0,0,125,1181.1,2831.28)"
   id="g12">
            </g>
            <g
   transform="matrix(79.1667,0,0,79.1667,519.685,2922.95)"
   id="g13">
                <path
   d="M0.235,-0L0.235,-0.704L0.414,-0.704L0.414,-0L0.235,-0ZM0.018,-0.555L0.018,-0.709L0.631,-0.709L0.631,-0.555L0.018,-0.555Z"
   style="fill-rule:nonzero;"
   id="path12" />
            </g>
            <g
   transform="matrix(79.1667,0,0,79.1667,579.058,2922.95)"
   id="g14">
                <path
   d="M0.408,0.013C0.353,0.013 0.303,0.004 0.257,-0.015C0.211,-0.034 0.171,-0.06 0.136,-0.093C0.102,-0.126 0.075,-0.165 0.056,-0.21C0.037,-0.255 0.027,-0.304 0.027,-0.356C0.027,-0.408 0.037,-0.456 0.056,-0.501C0.074,-0.545 0.101,-0.584 0.135,-0.617C0.169,-0.65 0.209,-0.676 0.255,-0.695C0.301,-0.713 0.351,-0.722 0.406,-0.722C0.46,-0.722 0.51,-0.713 0.557,-0.695C0.603,-0.676 0.643,-0.65 0.677,-0.617C0.711,-0.584 0.737,-0.545 0.756,-0.5C0.775,-0.456 0.785,-0.407 0.785,-0.355C0.785,-0.303 0.775,-0.254 0.756,-0.21C0.737,-0.165 0.711,-0.126 0.677,-0.092C0.643,-0.059 0.603,-0.033 0.557,-0.015C0.511,0.004 0.462,0.013 0.408,0.013ZM0.406,-0.147C0.446,-0.147 0.48,-0.155 0.51,-0.173C0.539,-0.19 0.562,-0.214 0.578,-0.246C0.594,-0.277 0.602,-0.314 0.602,-0.356C0.602,-0.387 0.597,-0.415 0.588,-0.44C0.579,-0.466 0.566,-0.487 0.549,-0.506C0.531,-0.524 0.51,-0.538 0.487,-0.548C0.462,-0.558 0.436,-0.563 0.406,-0.563C0.366,-0.563 0.332,-0.554 0.302,-0.537C0.273,-0.52 0.25,-0.496 0.234,-0.465C0.218,-0.434 0.21,-0.397 0.21,-0.356C0.21,-0.324 0.214,-0.295 0.224,-0.269C0.233,-0.244 0.246,-0.222 0.263,-0.203C0.28,-0.185 0.301,-0.171 0.325,-0.161C0.349,-0.151 0.376,-0.147 0.406,-0.147Z"
   style="fill-rule:nonzero;"
   id="path13" />
            </g>
            <g
   transform="matrix(79.1667,0,0,79.1667,653.868,2922.95)"
   id="g15">
                <path
   d="M0.355,0.012C0.295,0.012 0.242,-0.001 0.196,-0.026C0.151,-0.052 0.115,-0.086 0.09,-0.131C0.064,-0.175 0.052,-0.226 0.052,-0.283L0.052,-0.709L0.23,-0.709L0.23,-0.27C0.23,-0.245 0.236,-0.223 0.247,-0.204C0.258,-0.186 0.273,-0.172 0.292,-0.162C0.311,-0.153 0.332,-0.148 0.355,-0.148C0.379,-0.148 0.4,-0.153 0.418,-0.162C0.436,-0.172 0.451,-0.186 0.461,-0.204C0.472,-0.222 0.477,-0.244 0.477,-0.269L0.477,-0.709L0.657,-0.709L0.657,-0.282C0.657,-0.225 0.644,-0.174 0.619,-0.13C0.593,-0.086 0.558,-0.052 0.513,-0.026C0.468,-0.001 0.415,0.012 0.355,0.012Z"
   style="fill-rule:nonzero;"
   id="path14" />
            </g>
            <g
   transform="matrix(79.1667,0,0,79.1667,720.445,2922.95)"
   id="g16">
                <path
   d="M0.205,-0.287L0.205,-0.415L0.34,-0.415C0.369,-0.415 0.391,-0.422 0.407,-0.436C0.423,-0.451 0.431,-0.471 0.431,-0.495C0.431,-0.519 0.423,-0.539 0.407,-0.554C0.392,-0.569 0.369,-0.576 0.34,-0.576L0.205,-0.576L0.205,-0.709L0.365,-0.709C0.413,-0.709 0.455,-0.7 0.492,-0.682C0.528,-0.664 0.556,-0.639 0.577,-0.608C0.597,-0.576 0.608,-0.54 0.608,-0.498C0.608,-0.456 0.597,-0.419 0.577,-0.388C0.556,-0.356 0.527,-0.331 0.489,-0.314C0.452,-0.296 0.408,-0.287 0.358,-0.287L0.205,-0.287ZM0.063,-0L0.063,-0.709L0.242,-0.709L0.242,-0L0.063,-0ZM0.447,-0L0.241,-0.304L0.402,-0.343L0.654,-0L0.447,-0Z"
   style="fill-rule:nonzero;"
   id="path15" />
            </g>
            <g
   transform="matrix(79.1667,0,0,79.1667,782.351,2922.95)"
   id="g17">
                <path
   d="M0.063,-0L0.063,-0.709L0.188,-0.709L0.242,-0.564L0.242,-0L0.063,-0ZM0.552,-0L0.138,-0.526L0.188,-0.709L0.603,-0.183L0.552,-0ZM0.552,-0L0.506,-0.149L0.506,-0.709L0.685,-0.709L0.685,-0L0.552,-0Z"
   style="fill-rule:nonzero;"
   id="path16" />
            </g>
            <g
   transform="matrix(79.1667,0,0,79.1667,852.095,2922.95)"
   id="g18">
                <path
   d="M0.011,-0L0.286,-0.709L0.459,-0.709L0.731,-0L0.544,-0L0.339,-0.596L0.404,-0.596L0.194,-0L0.011,-0ZM0.178,-0.124L0.178,-0.266L0.569,-0.266L0.569,-0.124L0.178,-0.124Z"
   style="fill-rule:nonzero;"
   id="path17" />
            </g>
            <g
   transform="matrix(79.1667,0,0,79.1667,920.73,2922.95)"
   id="g19">
                <path
   d="M0.063,-0L0.063,-0.709L0.192,-0.709L0.464,-0.298L0.403,-0.298L0.674,-0.709L0.803,-0.709L0.803,-0L0.626,-0L0.626,-0.413L0.654,-0.405L0.491,-0.16L0.375,-0.16L0.213,-0.405L0.241,-0.413L0.241,-0L0.063,-0Z"
   style="fill-rule:nonzero;"
   id="path18" />
            </g>
            <g
   transform="matrix(79.1667,0,0,79.1667,999.815,2922.95)"
   id="g20">
                <path
   d="M0.063,-0L0.063,-0.709L0.242,-0.709L0.242,-0L0.063,-0ZM0.205,-0L0.205,-0.151L0.589,-0.151L0.589,-0L0.205,-0ZM0.205,-0.288L0.205,-0.435L0.553,-0.435L0.553,-0.288L0.205,-0.288ZM0.205,-0.558L0.205,-0.709L0.583,-0.709L0.583,-0.558L0.205,-0.558Z"
   style="fill-rule:nonzero;"
   id="path19" />
            </g>
            <g
   transform="matrix(79.1667,0,0,79.1667,1059.98,2922.95)"
   id="g21">
                <path
   d="M0.063,-0L0.063,-0.709L0.188,-0.709L0.242,-0.564L0.242,-0L0.063,-0ZM0.552,-0L0.138,-0.526L0.188,-0.709L0.603,-0.183L0.552,-0ZM0.552,-0L0.506,-0.149L0.506,-0.709L0.685,-0.709L0.685,-0L0.552,-0Z"
   style="fill-rule:nonzero;"
   id="path20" />
            </g>
            <g
   transform="matrix(79.1667,0,0,79.1667,1129.72,2922.95)"
   id="g22">
                <path
   d="M0.235,-0L0.235,-0.704L0.414,-0.704L0.414,-0L0.235,-0ZM0.018,-0.555L0.018,-0.709L0.631,-0.709L0.631,-0.555L0.018,-0.555Z"
   style="fill-rule:nonzero;"
   id="path21" />
            </g>
            <g
   transform="matrix(79.1667,0,0,79.1667,1181.1,2922.95)"
   id="g23">
            </g>
        </g>
    </g>
<path
   style="fill:#ececec;stroke-width:0.645774"
   d="M 0,236.03039 V 0 H 47.1415 94.283001 V 189.21178 378.42355 H 236.03039 377.77778 v 46.81862 46.81861 H 188.88889 0 Z"
   id="path26" /><path
   style="fill:#ececec;stroke-width:0.645774"
   d="m 472.70655,283.49478 v -94.283 h 47.1415 47.1415 V 141.74739 94.283001 H 425.24217 283.49478 V 47.1415 0 h 188.88889 188.88888 v 141.42031 141.42031 l -47.30294,0.16564 -47.30294,0.16563 -0.16564,47.30294 -0.16563,47.30295 h -46.81442 -46.81443 z"
   id="path27" /><path
   style="fill:#ececec;stroke-width:0.645774"
   d="m 566.98955,425.24217 v -46.81862 h 47.1415 47.1415 v 46.81862 46.81861 h -47.1415 -47.1415 z"
   id="path28" /><path
   style="fill:#ececec;stroke-width:0.645774"
   d="m 603.1529,587.29285 c -12.627,-2.72113 -23.43556,-10.08948 -29.95725,-20.4223 -8.21746,-13.01957 -9.04056,-29.6867 -2.16271,-43.79363 2.18158,-4.47458 3.75601,-6.56579 8.51869,-11.31482 6.24601,-6.22813 10.5234,-8.91922 18.476,-11.62407 16.21572,-5.51532 35.52798,-2.27934 48.23068,8.08158 2.21985,1.81061 4.03609,3.63733 4.03609,4.05937 0,0.42205 -3.09945,3.87644 -6.88765,7.67643 l -6.88765,6.90907 -3.28329,-2.88494 c -6.69578,-5.88341 -15.09912,-8.31014 -23.68072,-6.83856 -8.97685,1.53936 -14.60317,5.65581 -18.49603,13.53248 -2.38644,4.82863 -2.4352,5.0745 -2.39298,12.06608 0.0353,5.83828 0.30473,7.77118 1.48092,10.62208 4.46569,10.82418 13.12468,16.10583 25.26943,15.41337 6.66897,-0.38025 10.79373,-2.00404 14.63036,-5.7595 2.78193,-2.72309 5.30311,-7.31061 4.47396,-8.14078 -0.26244,-0.26276 -5.53868,-0.57915 -11.72498,-0.70309 l -11.24781,-0.22535 v -8.97693 -8.97694 h 23.24786 23.24786 v 5.75516 c 0,14.31443 -5.51116,28.05577 -14.40742,35.92298 -4.38192,3.87505 -13.6561,8.34741 -19.95282,9.622 -6.0422,1.22307 -14.85587,1.2232 -20.53054,3.1e-4 z"
   id="path29" /><path
   style="fill:#ececec;stroke-width:0.645774"
   d="m 450.10446,543.09592 v -43.91263 h 7.64728 7.64727 l 19.61073,24.86229 c 10.7859,13.67427 19.84036,24.8623 20.12101,24.8623 0.28065,0 0.51028,-11.18803 0.51028,-24.8623 v -24.86229 h 10.65527 10.65527 v 43.91263 43.91263 l -7.91073,-0.0283 -7.91074,-0.0283 -19.37321,-24.67253 -19.37322,-24.67252 -0.16912,24.70085 -0.16912,24.70086 h -10.97048 -10.97049 z"
   id="path30" /><path
   style="fill:#ececec;stroke-width:0.645774"
   d="m 384.88129,543.09592 v -43.91263 h 10.97816 10.97816 v 43.91263 43.91263 h -10.97816 -10.97816 z"
   id="path31" /><path
   style="fill:#ececec;stroke-width:0.645774"
   d="m 249.26876,543.09592 v -43.91263 h 7.99974 7.99975 l 14.69002,22.29527 c 8.07951,12.26241 14.93432,22.44627 15.23291,22.63081 0.29859,0.18454 7.2648,-9.84834 15.48045,-22.29528 l 14.93756,-22.6308 h 8.00262 8.00262 v 43.91263 43.91263 h -10.96989 -10.96989 l -0.16971,-22.76354 -0.16971,-22.76353 -8.56455,12.75404 -8.56455,12.75403 -6.93402,-0.0107 -6.93403,-0.0107 -8.39506,-12.74332 -8.39506,-12.74333 -0.16971,22.76353 -0.1697,22.76354 h -10.9699 -10.96989 z"
   id="path32" /><path
   style="fill:#ececec;stroke-width:0.645774"
   d="m 124.63438,586.48738 c 0,-0.28665 6.70529,-17.7952 14.90065,-38.90789 8.19535,-21.11269 15.7747,-40.64576 16.84299,-43.40683 l 1.94234,-5.02012 10.70362,0.17681 10.70362,0.17682 16.36257,42.62109 c 8.99941,23.44159 16.529,43.12963 16.73242,43.75118 0.34276,1.04731 -0.45741,1.13011 -10.92089,1.13011 h -11.29075 l -2.52928,-7.58785 -2.52928,-7.58784 h -16.98037 -16.98038 l -2.63366,7.58784 -2.63367,7.58785 h -10.84497 c -5.96473,0 -10.84496,-0.23453 -10.84496,-0.52117 z m 50.62871,-44.52157 c -5.7165,-16.67839 -6.14875,-17.78138 -6.72792,-17.16782 -0.50217,0.53198 -10.32055,27.95635 -10.32055,28.82701 0,0.24699 4.76968,0.44907 10.59928,0.44907 h 10.59928 z"
   id="path33" /><path
   style="fill:#ececec;stroke-width:0.645774"
   d="M 40.697886,587.33184 C 30.398002,584.99766 24.221817,581.63832 17.056229,574.47274 8.4380014,565.85451 4.6695234,557.30767 4.0757456,545.03324 3.6626612,536.49406 4.8543839,530.45237 8.3429378,523.39981 14.271812,511.41383 25.811423,502.35826 39.7151,498.78088 c 6.508123,-1.67452 18.89689,-1.51543 25.79349,0.33124 8.662626,2.31954 17.772463,7.55095 21.328566,12.24811 l 1.152022,1.52168 -6.97071,6.99239 -6.970704,6.99239 -3.296515,-2.8163 c -8.444111,-7.21403 -19.533663,-9.25882 -29.66195,-5.46935 -11.505715,4.30484 -17.771557,18.34245 -14.268841,31.96704 3.112079,12.10513 12.935396,18.98083 26.045501,18.23023 6.970092,-0.39907 11.362361,-2.17947 14.932876,-6.05302 2.879609,-3.12401 5.029985,-7.07242 4.267559,-7.83589 -0.270476,-0.27084 -5.698625,-0.59332 -12.062558,-0.71661 l -11.570788,-0.22417 v -8.97811 -8.97811 H 72.097752 95.76245 l -0.376151,7.91073 c -1.042938,21.9339 -11.484941,36.47883 -30.486014,42.46473 -5.903989,1.85993 -18.104582,2.34589 -24.202399,0.96398 z"
   id="path34" /><path
   style="fill:#ececec;stroke-width:0.645774"
   d="M 18.727445,656.75214 V 634.79582 H 10.332384 1.9373219 v -5.81196 -5.81197 H 25.830959 49.724596 v 5.81197 5.81196 h -8.717948 -8.717949 v 21.95632 21.95631 h -6.780627 -6.780627 z"
   id="path35" /><path
   style="fill:#ececec;stroke-width:0.645774"
   d="m 83.779143,678.65159 c -5.860761,-1.38078 -12.917722,-6.23066 -16.649925,-11.44262 -5.726257,-7.99662 -6.771872,-19.3853 -2.600834,-28.32789 5.612988,-12.03408 18.880933,-18.75996 32.337713,-16.39287 24.003053,4.22221 32.542793,33.08986 14.663993,49.56997 -5.39338,4.97144 -11.959505,7.33263 -20.108837,7.23118 -2.865735,-0.0357 -6.304684,-0.32268 -7.64211,-0.63777 z m 15.526164,-12.94751 c 4.945563,-2.3901 7.814153,-7.61185 7.864833,-14.3165 0.0408,-5.40315 -1.07164,-9.03196 -3.71597,-12.12127 -2.99598,-3.50012 -6.521518,-5.08403 -11.356455,-5.10208 -9.808361,-0.0366 -15.439413,5.12072 -16.284793,14.91481 -0.764678,8.85912 3.715387,16.13701 11.051909,17.95388 3.528164,0.87374 9.118526,0.27661 12.440476,-1.32884 z"
   id="path36" /><path
   style="fill:#ececec;stroke-width:0.645774"
   d="m 154.50376,678.44755 c -6.11511,-1.99141 -10.48997,-5.80028 -13.7933,-12.0088 -1.52207,-2.8607 -1.54921,-3.22048 -1.74161,-23.08642 l -0.19544,-20.18044 h 6.43991 6.4399 l 0.21328,18.566 c 0.19867,17.29453 0.30329,18.71923 1.52767,20.80336 1.84697,3.14389 4.85535,4.72778 8.9798,4.72778 4.33052,0 7.09329,-1.59284 8.76985,-5.05615 1.1806,-2.43878 1.27783,-4.02462 1.27783,-20.84032 v -18.20067 h 6.82324 6.82323 l -0.20405,19.53466 -0.20405,19.53467 -1.70172,3.62925 c -2.38511,5.08672 -5.81024,8.60661 -10.73322,11.03019 -3.67039,1.80693 -4.99387,2.10298 -10.10145,2.25963 -3.72494,0.11425 -6.88201,-0.14679 -8.61987,-0.71274 z"
   id="path37" /><path
   style="fill:#ececec;stroke-width:0.645774"
   d="m 206.0019,650.94017 v -27.76828 h 13.80998 c 15.65227,0 18.56551,0.55233 23.01879,4.36417 9.15773,7.83868 6.60385,22.47714 -4.61671,26.46233 -1.73373,0.61577 -3.14736,1.26932 -3.1414,1.45233 0.006,0.18302 3.22213,4.69173 7.14704,10.01937 3.92492,5.32763 7.71761,10.48575 8.4282,11.46248 l 1.292,1.77588 h -7.70869 -7.70868 l -7.64142,-11.30104 c -4.20278,-6.21558 -8.01862,-11.30105 -8.47964,-11.30105 -0.65518,0 -0.83822,2.4678 -0.83822,11.30105 v 11.30104 h -6.78062 -6.78063 z m 25.47683,-5.43441 c 2.60376,-1.08792 3.583,-2.69128 3.583,-5.86663 0,-4.97506 -2.83181,-6.78063 -10.63453,-6.78063 h -4.86405 v 6.78063 6.78062 h 4.86405 c 2.7334,0 5.82225,-0.40036 7.05153,-0.91399 z"
   id="path38" /><path
   style="fill:#ececec;stroke-width:0.645774"
   d="m 267.9962,650.94017 v -27.76828 h 4.7031 4.70309 l 12.57136,15.94907 12.57136,15.94908 0.17272,-15.94908 0.17273,-15.94907 h 6.76934 6.76935 v 27.76828 27.76828 h -4.81444 -4.81444 L 294.66324,663.2388 c -6.67542,-8.50831 -12.35507,-15.48267 -12.62145,-15.49858 -0.26639,-0.0159 -0.48434,6.94544 -0.48434,15.46966 v 15.49857 h -6.78062 -6.78063 z"
   id="path39" /><path
   style="fill:#ececec;stroke-width:0.645774"
   d="m 334.03317,677.92387 c 0.17797,-0.45642 4.89543,-12.59908 10.48325,-26.9837 5.58782,-14.38461 10.30317,-26.51709 10.47856,-26.96106 0.22615,-0.57246 2.24205,-0.80722 6.93174,-0.80722 h 6.61286 l 10.44117,27.28395 c 5.74264,15.00617 10.43662,27.51173 10.43106,27.79013 -0.006,0.2784 -3.11039,0.4237 -6.89963,0.32289 l -6.88954,-0.18329 -1.55934,-4.68187 -1.55934,-4.68186 H 361.63343 350.7629 l -1.55934,4.68186 -1.55934,4.68187 -6.96732,0.18407 c -5.46869,0.14449 -6.89771,0.006 -6.64373,-0.64577 z m 31.35159,-29.62142 c -1.79004,-5.35768 -3.47324,-9.49871 -3.74047,-9.20228 -0.54603,0.60572 -6.4686,17.39598 -6.4686,18.33826 0,0.33778 2.97487,0.60525 6.73183,0.60525 h 6.73184 z"
   id="path40" /><path
   style="fill:#ececec;stroke-width:0.645774"
   d="m 406.19183,650.94017 v -27.76828 l 5.00475,0.005 5.00475,0.005 9.27559,14.20199 c 5.10158,7.8111 9.52601,14.20199 9.83208,14.20199 0.30607,0 4.765,-6.39316 9.90874,-14.20702 L 454.57,623.17189 h 4.87075 4.87074 v 27.76828 27.76828 h -6.78063 -6.78062 v -14.68752 -14.68752 l -5.49654,8.22978 -5.49653,8.22978 h -4.42251 -4.4225 l -5.41809,-8.18048 -5.4181,-8.18048 -0.17356,14.63822 -0.17357,14.63822 h -6.7685 -6.76851 z"
   id="path41" /><path
   style="fill:#ececec;stroke-width:0.645774"
   d="m 485.62203,650.94017 v -27.76828 h 20.019 20.01899 v 5.48908 5.48908 h -13.23837 -13.23836 v 5.16619 5.16619 h 12.2697 12.26971 v 5.48908 5.48908 h -12.26971 -12.2697 v 5.81196 5.81197 h 13.56125 13.56125 v 5.81197 5.81196 h -20.34188 -20.34188 z"
   id="path42" /><path
   style="fill:#ececec;stroke-width:0.645774"
   d="m 545.67901,650.94017 v -27.76828 l 4.68186,0.003 4.68187,0.003 12.59259,15.97622 12.59259,15.97621 0.17273,-15.97892 0.17272,-15.97892 h 6.76935 6.76934 v 27.79544 27.79545 l -4.98847,-0.18861 -4.98847,-0.1886 -11.9631,-15.30486 c -6.5797,-8.41767 -12.18104,-15.31938 -12.44742,-15.33713 -0.26639,-0.0178 -0.48433,6.94208 -0.48433,15.4663 v 15.49857 h -6.78063 -6.78063 z"
   id="path43" /><path
   style="fill:#ffffff;stroke-width:0.645774;fill-opacity:1"
   d="m 628.98386,656.75214 v -21.95632 h -8.71795 -8.71795 v -5.81196 -5.81197 h 24.21652 24.21653 v 5.81197 5.81196 h -8.71795 -8.71795 v 21.95632 21.95631 h -6.78063 -6.78062 z"
   id="path44" /><path
   style="fill:#ffffff;fill-opacity:1;stroke-width:0.645774"
   d="M 378.42355,141.74739 V 94.928775 h 93.96012 93.96011 V 141.74739 188.566 h -93.96011 -93.96012 z"
   id="path45" /><path
   style="fill:#ffffff;fill-opacity:1;stroke-width:0.645774"
   d="m 472.70655,283.49478 v -94.283 h 47.1415 47.1415 V 141.74739 94.283001 H 425.24217 283.49478 V 47.1415 0 H 472.38367 661.27255 V 141.4245 282.849 h -47.46438 -47.46439 v 46.44291 c 0,25.5436 -0.17639,46.90258 -0.39198,47.46439 -0.3524,0.91835 -5.07931,1.02148 -46.81861,1.02148 h -46.42664 z"
   id="path46" /><path
   style="fill:#ffffff;fill-opacity:1;stroke-width:0.645774"
   d="m 566.98955,425.24217 v -46.81862 h 47.1415 47.1415 v 46.81862 46.81861 h -47.1415 -47.1415 z"
   id="path47" /><path
   style="fill:#ffffff;fill-opacity:1;stroke-width:0.645774"
   d="M 0,236.03039 V 0 H 47.1415 94.283001 V 189.21178 378.42355 H 236.03039 377.77778 v 46.81862 46.81861 H 188.88889 0 Z"
   id="path48" /><path
   style="fill:#ffffff;fill-opacity:1;stroke-width:0.645774"
   d="M 38.341328,586.3765 C 22.307863,582.1729 8.743224,568.41222 5.4885116,553.04887 4.3689434,547.76413 4.2377398,538.08336 5.220579,533.27965 c 0.3850886,-1.88216 2.018317,-6.16863 3.6293965,-9.52551 2.4713255,-5.1493 3.8061465,-6.98032 8.5388035,-11.71298 4.84853,-4.84853 6.524501,-6.05313 12.353509,-8.87904 8.789172,-4.261 15.15621,-5.5822 24.520685,-5.08818 3.752025,0.19793 8.697434,0.84495 10.989797,1.43781 7.947131,2.05531 17.718111,7.55841 20.878355,11.75886 l 1.21184,1.61073 -6.61022,6.63279 -6.610226,6.6328 -4.073194,-3.08299 c -6.478015,-4.90319 -10.199321,-6.09699 -19.047714,-6.1105 -7.120539,-0.0109 -7.626833,0.0802 -11.75827,2.11452 -5.081593,2.50221 -8.225722,5.84153 -11.070974,11.75825 -1.919343,3.99129 -2.017804,4.57829 -2.003928,11.94682 0.01234,6.55512 0.243274,8.32116 1.498582,11.46033 2.069761,5.17589 6.797987,10.15715 11.859846,12.49454 3.770313,1.74099 4.620895,1.87609 11.812164,1.87609 7.213292,0 8.00866,-0.12736 11.499221,-1.84135 5.676753,-2.78748 11.275432,-10.51463 8.768622,-12.10222 -0.492041,-0.31161 -3.945905,-0.57308 -7.67525,-0.58105 -3.729345,-0.008 -8.742165,-0.19973 -11.139601,-0.42616 l -4.358975,-0.41167 v -8.62457 -8.62457 H 72.01891 95.604771 l -0.372896,5.32764 c -1.184827,16.92803 -4.870078,26.42832 -13.532529,34.88579 -4.530537,4.42332 -13.543727,9.14344 -20.027931,10.48842 -6.416811,1.331 -17.623559,1.17837 -23.330087,-0.31775 z"
   id="path49" /><path
   style="fill:#ffffff;fill-opacity:1;stroke-width:0.645774"
   d="m 130.2849,586.52854 c -2.75261,-0.12105 -5.00475,-0.36064 -5.00475,-0.53242 0,-0.30622 15.39747,-40.36014 27.29039,-70.99137 5.37577,-13.84575 6.16976,-15.49366 7.44523,-15.45245 0.78525,0.0254 5.46501,0.098 10.39947,0.16144 7.87485,0.10122 9.02758,0.25349 9.42847,1.24542 4.49574,11.12425 32.54609,85.04294 32.3472,85.24183 -0.15212,0.15212 -4.99379,0.3234 -10.75926,0.38063 l -10.48267,0.10404 -2.53685,-7.58784 -2.53685,-7.58785 h -17.32944 -17.32943 l -1.43236,4.35898 c -0.7878,2.39743 -1.99476,5.88461 -2.68214,7.74928 l -1.24979,3.39032 -5.28123,-0.12996 c -2.90468,-0.0715 -7.53338,-0.229 -10.28599,-0.35005 z m 49.24027,-32.94089 c 0,-0.26753 -2.17221,-6.71153 -4.82713,-14.32 -4.43711,-12.7159 -5.68522,-15.61905 -6.38687,-14.85613 -0.78854,0.85741 -10.09655,27.42727 -10.09655,28.82078 0,0.65784 2.32827,0.84177 10.65528,0.84177 5.86039,0 10.65527,-0.21889 10.65527,-0.48642 z"
   id="path50" /><path
   style="fill:#ffffff;fill-opacity:1;stroke-width:0.645774"
   d="m 249.26876,543.09592 v -43.91263 h 7.75117 7.75117 l 14.67924,22.11775 c 8.07358,12.16477 14.90867,22.40836 15.18907,22.76354 0.78186,0.99034 2.58389,-1.46888 17.62667,-24.05508 l 13.87059,-20.82621 h 7.73888 7.73888 v 43.91263 43.91263 h -10.65527 c -5.86039,0 -10.71492,-0.0727 -10.78782,-0.16145 -0.0729,-0.0888 -0.29085,-10.47768 -0.48433,-23.08642 l -0.35178,-22.92497 -8.71795,13.05964 -8.71794,13.05964 -6.54978,0.0173 -6.54978,0.0173 -8.62591,-13.07692 -8.62591,-13.07692 -0.35178,22.92497 c -0.19348,12.60874 -0.41143,22.99763 -0.48433,23.08642 -0.0729,0.0888 -4.92742,0.16145 -10.78782,0.16145 h -10.65527 z"
   id="path51" /><path
   style="fill:#ffffff;fill-opacity:1;stroke-width:0.645774"
   d="m 384.88129,543.09592 v -43.91263 h 10.97816 10.97816 v 43.91263 43.91263 h -10.97816 -10.97816 z"
   id="path52" /><path
   style="fill:#ffffff;fill-opacity:1;stroke-width:0.645774"
   d="m 450.10446,543.09592 v -43.91263 h 7.37682 7.37682 l 9.5496,12.10826 c 18.41888,23.35394 30.03242,37.61633 30.63011,37.61633 0.36333,0 0.60322,-9.88742 0.60322,-24.8623 v -24.86229 h 10.65527 10.65527 v 43.9308 43.93079 l -7.91073,-0.42244 c -4.35091,-0.23234 -8.09057,-0.60377 -8.31037,-0.82538 -0.21979,-0.22162 -8.93774,-11.30038 -19.37321,-24.61947 l -18.97359,-24.21653 -0.34972,24.8623 c -0.19234,13.67427 -0.41028,24.93495 -0.48433,25.02374 -0.074,0.0888 -4.92949,0.16145 -10.78989,0.16145 h -10.65527 z"
   id="path53" /><path
   style="fill:#ffffff;fill-opacity:1;stroke-width:0.645774"
   d="m 602.18424,586.69616 c -14.02366,-3.79233 -24.91648,-12.25755 -30.60508,-23.78438 -3.32996,-6.74753 -4.57052,-12.12604 -4.57052,-19.81586 0,-12.21068 3.90689,-21.94549 12.15994,-30.29897 5.96973,-6.04238 10.78547,-9.26155 17.4571,-11.66952 7.41523,-2.67635 12.7871,-3.46594 20.65044,-3.03531 8.20291,0.44921 12.86344,1.62175 19.77991,4.97641 5.33906,2.58958 12.59259,7.8505 12.59259,9.1333 0,0.40147 -2.95084,3.7286 -6.55742,7.39363 l -6.55741,6.66369 -3.02924,-2.53622 c -6.46576,-5.41344 -12.68597,-7.44328 -21.30345,-6.95193 -9.9764,0.56883 -16.62245,4.77876 -21.37183,13.53796 -2.18939,4.03784 -2.20629,4.1333 -2.20629,12.46407 0,7.75609 0.13173,8.67611 1.73071,12.08764 2.31688,4.9432 6.95542,9.77495 11.42604,11.90197 2.97233,1.41418 4.81657,1.78277 10.13672,2.02596 10.45187,0.47776 16.81649,-2.18 20.99622,-8.76767 3.3886,-5.34078 3.09216,-5.56056 -8.12635,-6.02493 -5.32763,-0.22053 -10.48575,-0.43848 -11.46248,-0.48433 l -1.77588,-0.0834 v -8.71795 -8.71795 h 23.30813 23.30813 l -0.41441,6.2963 c -1.01774,15.46306 -6.13495,27.87816 -14.43498,35.02139 -3.88974,3.34761 -13.46239,8.09477 -18.85139,9.34856 -5.2246,1.21554 -17.8444,1.23678 -22.2792,0.0375 z"
   id="path54" /><path
   style="fill:#ffffff;fill-opacity:1;stroke-width:0.645774"
   d="m 545.67901,650.94017 v -27.76828 h 4.41734 4.41733 l 12.85712,16.30161 12.85712,16.30161 0.35133,-16.14017 c 0.19323,-8.87709 0.41118,-16.21281 0.48433,-16.30161 0.0731,-0.0888 3.03898,-0.16144 6.59074,-0.16144 h 6.45774 v 27.68206 27.68205 l -4.68186,-0.29229 c -5.57682,-0.34817 -3.99239,1.12829 -18.44188,-17.18513 -5.79213,-7.341 -10.80495,-13.34728 -11.1396,-13.34728 -0.36385,0 -0.60845,6.23045 -0.60845,15.49858 v 15.49857 h -6.78063 -6.78063 z"
   id="path55" /><path
   style="fill:#ffffff;fill-opacity:1;stroke-width:0.645774"
   d="m 485.62203,650.94017 v -27.76828 h 20.019 20.01899 v 5.48908 5.48908 h -13.23837 -13.23836 v 5.16619 5.16619 h 12.2697 12.26971 v 5.48908 5.48908 h -12.26971 -12.2697 v 5.81196 5.81197 h 13.56125 13.56125 v 5.81197 5.81196 h -20.34188 -20.34188 z"
   id="path56" /><path
   style="fill:#ffffff;fill-opacity:1;stroke-width:0.645774"
   d="m 406.19183,650.94017 v -27.76828 h 4.76878 4.76877 l 8.12982,12.43115 c 10.19052,15.58214 10.93259,16.52271 12.20353,15.46792 0.53009,-0.43993 4.99607,-6.88919 9.92442,-14.33168 l 8.96062,-13.5318 4.68186,-0.0178 4.68186,-0.0178 v 27.76828 27.76828 h -6.78063 -6.78062 l -0.003,-15.01424 -0.003,-15.01425 -5.64751,8.54186 -5.64751,8.54186 -4.03335,0.0146 -4.03336,0.0146 -5.65325,-8.48974 -5.65326,-8.48974 -0.36549,14.78604 c -0.20102,8.13232 -0.41897,14.85868 -0.48433,14.94748 -0.0654,0.0888 -3.02482,0.16144 -6.57658,0.16144 h -6.45774 z"
   id="path57" /><path
   style="fill:#ffffff;fill-opacity:1;stroke-width:0.645774"
   d="m 334.61855,677.47775 c 0.11839,-0.32171 4.84053,-12.50334 10.49364,-27.0703 l 10.27838,-26.48536 6.07612,-0.45555 c 3.34187,-0.25055 6.31023,-0.20139 6.59637,0.10923 0.46276,0.50238 19.21188,49.40943 20.3312,53.03392 0.44467,1.43992 0.39055,1.45299 -6.01531,1.45299 h -6.46401 l -1.4559,-4.52042 -1.4559,-4.52042 h -11.36971 -11.36971 l -1.4559,4.52042 -1.4559,4.52042 h -6.47431 c -3.59514,0 -6.37859,-0.26012 -6.25906,-0.58493 z m 34.11839,-19.95296 c 0,-0.68667 -4.05963,-12.61968 -5.48057,-16.10979 -0.61457,-1.50949 -1.32029,-2.74453 -1.56826,-2.74453 -0.5675,0 -6.54723,16.71296 -6.52721,18.24311 0.0131,1.0036 0.77382,1.1301 6.79542,1.1301 3.72934,0 6.78062,-0.2335 6.78062,-0.51889 z"
   id="path58" /><path
   style="fill:#ffffff;fill-opacity:1;stroke-width:0.645774"
   d="m 267.9962,650.94017 v -27.76828 h 4.45831 4.45831 l 12.81614,16.2888 12.81615,16.2888 0.35133,-16.12736 c 0.19323,-8.87004 0.41118,-16.2 0.48433,-16.2888 0.0731,-0.0888 3.03898,-0.16144 6.59074,-0.16144 h 6.45774 v 27.76828 27.76828 h -4.50955 -4.50954 l -6.26921,-7.91073 c -14.93799,-18.84936 -18.42244,-23.08642 -18.98568,-23.08642 -0.34997,0 -0.59782,6.42554 -0.59782,15.49858 v 15.49857 h -6.78062 -6.78063 z"
   id="path59" /><path
   style="fill:#ffffff;fill-opacity:1;stroke-width:0.645774"
   d="m 206.0019,650.94017 v -27.76828 l 7.26496,0.024 c 11.68843,0.0386 23.31353,1.01789 25.49894,2.14801 7.25239,3.75036 10.61609,11.14781 8.51301,18.72182 -0.93756,3.37654 -5.09955,7.72313 -9.00303,9.40236 -1.76773,0.76046 -3.21405,1.70058 -3.21405,2.08916 0,0.38857 3.41453,5.37452 7.58784,11.07987 4.17332,5.70535 7.82024,10.75541 8.10427,11.22236 0.41444,0.68134 -0.8879,0.84899 -6.59513,0.84899 h -7.11154 l -2.71319,-4.03609 c -7.01528,-10.43574 -13.10011,-18.566 -13.89515,-18.566 -0.7037,0 -0.87568,2.2195 -0.87568,11.30105 v 11.30104 h -6.78062 -6.78063 z m 25.74823,-5.23412 c 1.12602,-0.39253 2.33178,-1.24522 2.67946,-1.89486 0.81638,-1.52543 0.81638,-6.8187 0,-8.34412 -0.94224,-1.76059 -4.12689,-2.60857 -9.79661,-2.60857 h -5.06983 v 6.78063 6.78062 h 5.06983 c 2.78841,0 5.99112,-0.32116 7.11715,-0.7137 z"
   id="path60" /><path
   style="fill:#ffffff;fill-opacity:1;stroke-width:0.645774"
   d="m 152.07977,676.90132 c -4.0824,-1.97935 -9.04208,-6.71861 -11.00648,-10.51735 -1.31343,-2.53988 -1.46552,-4.77859 -1.82796,-26.90629 l -0.26709,-16.30579 h 6.06644 6.06643 l 0.0598,2.09877 c 0.0329,1.15432 0.25317,9.65432 0.48948,18.88888 0.47472,18.55091 0.6876,19.51422 4.86586,22.01765 2.90834,1.74255 9.37025,1.68389 11.81193,-0.10724 3.90625,-2.86547 4.08134,-3.90899 4.08244,-24.33206 l 10e-4,-18.566 h 6.69329 6.69329 l -0.32069,19.53466 -0.3207,19.53467 -1.84736,3.68524 c -2.56706,5.12096 -5.02199,7.70038 -9.74498,10.23915 -3.74956,2.01552 -4.57549,2.19824 -10.83946,2.39804 -6.39229,0.2039 -7.00253,0.1087 -10.65527,-1.66233 z"
   id="path61" /><path
   style="fill:#ffffff;fill-opacity:1;stroke-width:0.645774"
   d=""
   id="path62" /><path
   style="fill:#ffffff;fill-opacity:1;stroke-width:0.645774"
   d="m 81.137533,677.39872 c -6.961838,-2.89851 -12.905595,-8.36875 -16.102111,-14.81929 -1.97092,-3.9773 -2.072459,-4.54681 -2.072459,-11.62393 0,-7.01532 0.117095,-7.68889 2.043565,-11.75525 7.807499,-16.47991 28.285094,-21.78359 43.611372,-11.29531 4.88671,3.34414 8.96367,9.00692 10.8263,15.03744 4.01619,13.00288 -2.14309,26.81197 -14.73558,33.03715 -4.713387,2.33009 -5.11269,2.41107 -12.65106,2.56544 -6.586585,0.13487 -8.266482,-0.0415 -10.920027,-1.14625 z M 97.25534,666.77799 c 6.64692,-1.97392 9.90677,-7.20255 9.92896,-15.92552 0.0124,-4.86603 -0.21572,-6.01687 -1.7897,-9.02981 -1.12574,-2.15491 -2.84583,-4.18548 -4.57549,-5.40138 -2.447263,-1.72035 -3.403039,-1.97481 -8.167669,-2.1745 -4.68162,-0.19621 -5.86513,-0.0114 -8.938707,1.39572 -4.052435,1.85527 -6.347923,4.79464 -7.558286,9.67841 -1.051051,4.24094 -0.467883,11.12501 1.222928,14.43619 1.574645,3.08369 5.368245,6.46047 8.187676,7.28805 3.038042,0.89176 8.18379,0.77416 11.690288,-0.26716 z"
   id="path63" /><path
   style="fill:#ffffff;fill-opacity:1;stroke-width:0.645774"
   d="M 18.727445,656.75214 V 634.79582 H 10.332384 1.9373219 v -5.81196 -5.81197 H 25.830959 49.724596 v 5.81197 5.81196 h -8.717948 -8.717949 v 21.95632 21.95631 h -6.780627 -6.780627 z"
   id="path64" /></svg>
